<?xml version="1.0" standalone="no"?>
<!DOCTYPE svg PUBLIC "-//W3C//DTD SVG 20010904//EN"
 "http://www.w3.org/TR/2001/REC-SVG-20010904/DTD/svg10.dtd">
<svg version="1.0" xmlns="http://www.w3.org/2000/svg"
 width="1920.000000pt" height="1920.000000pt" viewBox="0 0 1920.000000 1920.000000"
 preserveAspectRatio="xMidYMid meet">
<metadata>
Created by potrace 1.11, written by Peter Selinger 2001-2013
</metadata>
<g transform="translate(0.000000,1920.000000) scale(0.100000,-0.100000)"
fill="#000000" stroke="none">
<path d="M9208 19195 c-1 -1 -48 -6 -103 -9 -195 -13 -308 -23 -365 -31 -14
-2 -54 -6 -90 -9 -36 -3 -78 -8 -95 -12 -16 -3 -43 -7 -60 -9 -38 -4 -170 -24
-210 -31 -16 -3 -41 -7 -55 -9 -34 -5 -80 -14 -106 -20 -12 -3 -39 -7 -60 -10
-21 -3 -46 -8 -54 -11 -8 -3 -26 -7 -40 -10 -14 -2 -36 -6 -50 -9 -14 -3 -41
-8 -60 -12 -46 -9 -49 -10 -55 -13 -6 -3 -5 -3 -60 -15 -22 -4 -44 -9 -50 -11
-5 -2 -20 -5 -33 -8 -12 -3 -57 -15 -100 -26 -42 -12 -86 -24 -97 -26 -11 -2
-65 -18 -120 -34 -55 -17 -107 -32 -115 -34 -8 -2 -64 -21 -125 -41 -60 -20
-117 -38 -125 -40 -8 -1 -26 -7 -40 -13 -40 -17 -64 -26 -75 -27 -5 -1 -23 -7
-40 -14 -16 -7 -32 -13 -35 -14 -3 0 -16 -6 -29 -13 -14 -7 -28 -11 -33 -8 -4
3 -8 0 -8 -6 0 -6 -4 -9 -9 -5 -5 3 -12 1 -16 -5 -4 -6 -11 -8 -16 -5 -5 4 -9
1 -9 -6 0 -7 -2 -10 -6 -7 -4 5 -43 -10 -194 -75 -14 -6 -27 -11 -30 -12 -32
-11 -225 -98 -230 -104 -3 -3 -11 -7 -19 -9 -15 -3 -294 -142 -386 -192 -170
-92 -205 -113 -211 -121 -3 -5 -12 -9 -20 -9 -8 0 -20 -5 -27 -11 -11 -9 -263
-167 -340 -213 -18 -10 -34 -21 -37 -25 -8 -9 -68 -51 -75 -51 -6 0 -64 -39
-75 -50 -13 -13 -79 -60 -85 -60 -6 0 -19 -10 -50 -37 -7 -7 -18 -13 -24 -13
-6 0 -11 -4 -11 -10 0 -5 -7 -10 -17 -10 -9 0 -13 -3 -10 -6 4 -4 -13 -19 -38
-35 -24 -15 -52 -35 -62 -44 -10 -9 -56 -46 -103 -83 -47 -37 -94 -75 -104
-84 -11 -10 -23 -18 -28 -18 -22 0 2 -29 120 -148 132 -133 254 -265 293 -317
13 -16 33 -40 46 -52 13 -12 23 -26 23 -30 1 -11 68 -83 78 -83 4 0 21 12 37
26 32 28 53 44 130 102 27 20 55 42 61 47 6 6 23 19 39 30 15 11 46 34 69 50
22 17 58 41 78 55 21 14 38 28 38 33 0 4 4 7 9 7 8 0 169 103 297 190 23 15
51 31 63 35 11 3 21 11 21 16 0 5 5 9 10 9 6 0 29 12 51 26 44 27 98 58 174
98 26 14 54 31 61 37 8 6 14 8 14 3 0 -5 4 -4 8 2 4 6 32 23 64 38 31 15 59
30 63 34 4 4 10 7 13 8 14 1 87 39 90 47 2 4 8 7 14 7 6 0 36 12 67 27 31 15
58 27 61 28 3 0 16 7 30 15 14 8 31 15 39 16 8 2 18 9 22 16 5 7 9 10 9 6 0
-5 88 29 195 77 17 7 62 25 100 39 39 15 79 30 90 35 23 10 55 23 70 27 6 1
82 27 170 57 88 30 187 62 220 72 33 9 78 23 100 30 48 15 308 82 348 89 15 3
35 7 45 10 28 9 273 58 357 71 17 3 41 8 55 10 14 3 39 7 55 9 52 7 129 18
155 22 44 8 134 17 167 18 18 1 33 3 33 6 0 3 15 5 33 6 28 1 105 6 262 19 75
6 386 18 415 15 32 -3 67 -3 105 0 38 2 343 -8 410 -14 28 -3 90 -8 140 -11
49 -4 103 -8 120 -10 30 -4 92 -12 170 -20 22 -3 54 -7 70 -9 17 -3 48 -7 70
-10 22 -3 54 -8 70 -11 62 -11 96 -16 128 -20 17 -3 43 -7 57 -10 14 -3 40 -8
59 -10 18 -3 36 -7 40 -9 3 -3 26 -7 51 -11 25 -4 48 -9 52 -11 4 -2 26 -7 50
-10 24 -4 51 -10 61 -15 9 -6 17 -8 17 -5 0 13 488 -125 689 -195 64 -22 121
-42 126 -43 6 -2 22 -8 36 -14 15 -6 35 -12 45 -14 11 -2 21 -6 24 -10 3 -4
15 -9 25 -11 11 -2 34 -11 52 -20 18 -9 40 -17 51 -17 10 0 24 -6 31 -12 6 -7
15 -13 19 -14 12 -1 46 -15 72 -29 14 -7 28 -14 33 -14 7 -1 44 -16 115 -48
20 -9 40 -16 45 -15 4 1 7 -3 7 -8 0 -5 3 -9 8 -8 4 1 60 -23 125 -55 64 -31
122 -57 127 -57 6 0 10 -4 10 -9 0 -8 37 -24 53 -22 4 1 7 -3 7 -8 0 -5 10
-11 23 -15 13 -3 34 -14 46 -26 13 -11 27 -17 31 -15 4 3 13 -2 20 -10 7 -8
17 -15 22 -15 6 0 48 -22 95 -50 47 -27 89 -50 94 -50 5 0 9 -4 9 -10 0 -5 4
-10 9 -10 9 0 140 -78 151 -90 3 -3 15 -11 28 -17 12 -7 32 -19 45 -25 12 -7
24 -15 27 -18 3 -3 55 -39 115 -79 115 -78 259 -181 285 -203 8 -7 15 -11 15
-8 1 3 13 -6 27 -20 15 -14 33 -30 40 -35 115 -89 155 -120 163 -126 6 -5 37
26 74 72 35 43 69 79 74 79 6 0 8 3 4 6 -3 3 4 16 16 29 12 13 63 67 112 121
104 112 219 229 264 267 28 23 30 29 19 47 -7 11 -15 20 -18 20 -3 0 -18 12
-35 26 -16 14 -46 38 -65 53 -19 14 -40 31 -46 36 -6 6 -26 21 -44 35 -19 14
-64 49 -102 78 -38 28 -72 52 -77 52 -5 0 -11 4 -13 9 -12 32 -509 352 -828
534 -119 67 -303 162 -312 160 -3 -2 -12 4 -18 12 -7 8 -16 15 -20 15 -5 0
-62 26 -127 57 -65 31 -120 58 -123 58 -8 3 -137 58 -185 80 -16 8 -37 15 -45
17 -8 2 -17 5 -20 9 -8 8 -104 44 -112 41 -5 -1 -8 3 -8 10 0 6 -3 9 -6 5 -4
-3 -19 0 -35 9 -16 8 -32 15 -36 16 -5 0 -21 6 -38 12 -16 5 -33 9 -37 8 -5
-1 -8 2 -8 6 0 5 -6 9 -12 9 -7 1 -63 19 -125 41 -61 22 -114 38 -117 34 -3
-3 -6 0 -6 6 0 7 -9 12 -19 12 -11 0 -43 9 -73 19 -57 21 -156 50 -253 76
-165 45 -213 57 -250 65 -22 5 -65 16 -95 23 -30 8 -73 18 -95 22 -22 5 -47
10 -55 12 -8 2 -24 5 -35 7 -11 2 -20 4 -20 6 0 1 -11 3 -25 5 -14 2 -52 9
-85 15 -33 7 -71 14 -85 16 -14 2 -36 6 -50 8 -14 3 -68 12 -120 20 -52 9
-115 18 -140 21 -25 3 -61 8 -80 10 -19 3 -57 8 -85 11 -27 3 -81 9 -120 13
-38 5 -77 9 -85 9 -14 0 -70 5 -215 18 -59 5 -911 14 -917 9z"/>
<path d="M18230 17963 c0 -5 -62 -8 -138 -9 -144 -1 -342 -10 -452 -20 -36 -4
-89 -7 -117 -8 -29 0 -53 -3 -53 -6 0 -3 -10 -7 -22 -8 -53 -5 -103 -11 -103
-12 0 -1 -11 -3 -25 -5 -23 -2 -61 -8 -135 -21 -99 -17 -283 -58 -298 -66 -10
-5 -21 -7 -24 -4 -3 3 -21 -1 -40 -9 -19 -8 -37 -14 -41 -13 -4 1 -14 -1 -22
-4 -17 -6 -102 -32 -110 -34 -3 0 -12 -3 -20 -6 -8 -3 -51 -18 -95 -33 -44
-16 -85 -32 -91 -36 -6 -5 -14 -6 -17 -2 -4 3 -14 0 -23 -8 -9 -7 -21 -14 -28
-15 -7 -1 -32 -11 -56 -22 -25 -11 -47 -20 -50 -20 -3 0 -30 -13 -60 -28 -30
-16 -57 -29 -60 -29 -15 -3 -116 -59 -122 -69 -4 -6 -8 -8 -8 -3 0 4 -18 -4
-40 -18 -22 -14 -44 -25 -50 -25 -5 0 -10 -4 -10 -10 0 -5 -5 -10 -11 -10 -7
0 -36 -16 -65 -35 -30 -20 -56 -35 -60 -35 -4 1 -10 -2 -13 -7 -3 -5 -35 -29
-71 -54 -36 -24 -67 -46 -70 -49 -3 -3 -32 -25 -65 -50 -33 -25 -65 -50 -71
-56 -6 -5 -31 -26 -54 -45 -124 -101 -358 -335 -475 -473 -22 -26 -49 -58 -60
-70 -18 -21 -32 -37 -96 -116 -12 -14 -30 -38 -42 -54 -12 -15 -32 -39 -44
-52 -13 -12 -23 -28 -23 -34 0 -5 -4 -10 -10 -10 -5 0 -10 -6 -10 -14 0 -8 -3
-16 -7 -18 -10 -4 -83 -94 -83 -102 0 -6 -25 -38 -52 -68 -10 -10 -16 -18 -13
-18 3 0 1 -6 -5 -12 -6 -7 -24 -31 -41 -53 -16 -22 -36 -48 -44 -57 -8 -10
-13 -18 -10 -18 5 0 -26 -38 -53 -66 -7 -8 -11 -14 -8 -14 3 0 -22 -38 -57
-84 -34 -46 -71 -96 -82 -111 -11 -16 -26 -34 -32 -41 -7 -7 -13 -17 -13 -23
0 -5 -10 -17 -22 -26 -13 -8 -21 -17 -18 -18 7 -4 -200 -266 -305 -386 -125
-143 -259 -276 -380 -378 -75 -63 -225 -174 -245 -181 -8 -3 -17 -8 -20 -11
-8 -10 -89 -61 -96 -61 -3 0 -31 -15 -62 -33 -163 -95 -608 -266 -792 -304
-41 -8 -55 -11 -60 -13 -3 -1 -9 -3 -15 -4 -5 -1 -26 -5 -45 -10 -19 -4 -44
-9 -55 -11 -11 -2 -20 -4 -20 -5 0 -1 -13 -3 -30 -5 -16 -2 -50 -6 -75 -10
-25 -4 -58 -8 -75 -9 -16 -1 -34 -4 -40 -7 -25 -14 -443 1 -498 17 -11 3 -31
8 -45 10 -74 12 -79 13 -197 48 -12 4 -43 15 -70 26 -11 4 -60 27 -110 51 -49
23 -93 42 -97 41 -5 -1 -8 2 -8 8 0 5 -5 10 -10 10 -12 0 -96 57 -159 108
-111 90 -209 214 -279 356 -41 83 -82 200 -82 233 0 13 -4 23 -8 23 -4 0 -9
10 -9 23 -2 34 -11 99 -18 127 -7 30 -7 189 0 245 3 22 7 51 9 65 5 41 28 144
34 155 3 5 7 16 8 25 7 47 45 143 101 251 39 73 90 159 102 169 3 3 25 30 47
60 62 82 206 224 289 285 22 17 46 35 52 42 7 6 29 21 50 34 21 13 40 25 43
29 10 11 90 60 102 62 7 2 16 7 19 11 25 34 385 198 598 272 l65 23 -54 16
c-100 28 -237 56 -352 70 -154 19 -473 14 -588 -9 -14 -3 -36 -8 -50 -11 -14
-3 -34 -6 -45 -8 -31 -5 -142 -36 -195 -54 -8 -3 -17 -6 -20 -7 -3 -1 -22 -9
-44 -18 -21 -9 -41 -17 -44 -17 -12 0 -157 -74 -160 -82 -2 -4 -8 -8 -14 -8
-6 0 -38 -19 -72 -42 l-61 -41 -160 -3 c-135 -2 -200 -6 -200 -14 0 -1 -12 -4
-27 -6 -15 -3 -45 -11 -68 -19 -22 -8 -40 -12 -40 -10 0 3 -16 -4 -35 -15 -20
-11 -42 -20 -50 -20 -8 0 -15 -4 -15 -8 0 -5 -12 -14 -27 -21 -125 -57 -300
-230 -374 -371 -13 -25 -27 -46 -31 -48 -5 -2 -8 -12 -8 -23 0 -10 -5 -19 -11
-19 -6 0 -9 -6 -6 -14 3 -8 2 -16 -2 -18 -4 -2 -27 -50 -51 -108 -24 -58 -49
-112 -57 -121 -7 -8 -13 -21 -13 -27 0 -21 -108 -122 -130 -122 -11 0 -20 -4
-20 -8 0 -10 -5 -11 -100 -15 -108 -5 -302 37 -348 76 -8 6 -16 10 -16 9 -2
-7 -56 22 -56 30 0 4 -6 8 -12 8 -13 0 -126 110 -114 110 4 0 -2 9 -13 21 -10
11 -24 40 -31 65 -15 52 -24 56 -29 12 -27 -262 56 -463 249 -605 47 -35 133
-85 150 -88 3 0 15 -6 28 -13 12 -7 22 -10 22 -8 0 9 114 -55 126 -70 6 -8 16
-14 22 -14 12 0 102 -100 102 -114 0 -5 6 -17 14 -25 40 -47 52 -191 25 -299
-16 -61 -79 -204 -99 -222 -3 -3 -18 -22 -33 -43 -59 -79 -219 -227 -246 -227
-6 0 -11 -4 -11 -8 0 -5 -17 -17 -37 -28 -21 -10 -40 -21 -43 -24 -3 -3 -25
-15 -50 -27 -107 -50 -198 -81 -290 -97 -19 -4 -42 -9 -51 -12 -83 -25 -374
-36 -534 -21 -92 9 -133 15 -316 52 -8 2 -39 10 -67 19 -29 8 -52 12 -52 9 0
-3 -6 -1 -13 5 -12 10 -76 27 -89 24 -5 -1 -8 3 -8 8 0 6 -6 10 -12 9 -7 -1
-22 1 -33 6 -11 4 -69 27 -130 50 -102 39 -344 151 -355 165 -3 3 -24 14 -47
25 -24 11 -43 24 -43 28 0 5 -4 5 -10 2 -5 -3 -10 -1 -10 4 0 6 -4 11 -10 11
-10 0 -175 107 -233 152 -12 9 -51 38 -87 65 -69 51 -109 84 -147 121 -13 12
-26 22 -29 22 -5 0 -97 86 -193 181 -31 30 -92 95 -136 144 -44 49 -89 98
-100 110 -11 12 -47 55 -80 96 -32 41 -66 79 -75 86 -8 7 -11 13 -6 13 5 0 -3
11 -18 25 -14 13 -26 27 -26 31 0 3 -14 23 -30 43 -48 57 -50 60 -50 71 0 5
-4 10 -9 10 -5 0 -20 17 -32 38 -13 20 -31 44 -41 53 -10 9 -18 21 -18 28 0 6
-4 11 -10 11 -5 0 -10 7 -10 15 0 8 -3 15 -7 15 -5 0 -21 21 -38 45 -16 25
-34 45 -38 45 -5 0 -5 5 -2 10 3 6 2 10 -2 10 -5 0 -17 13 -26 30 -10 16 -23
35 -30 42 -7 7 -28 36 -47 63 -19 28 -38 55 -42 60 -15 19 -173 234 -188 256
-8 12 -25 32 -37 45 -13 13 -23 26 -23 29 0 8 -188 236 -206 251 -8 6 -14 14
-14 18 0 3 -16 22 -36 41 -20 19 -34 35 -32 35 15 0 -319 320 -373 357 -13 10
-28 23 -34 30 -5 6 -41 35 -80 63 -38 28 -77 57 -86 64 -8 7 -30 21 -47 32
-18 10 -32 22 -32 27 0 4 -4 5 -10 2 -5 -3 -10 -1 -10 4 0 6 -4 11 -9 11 -6 0
-29 13 -53 29 -82 54 -325 181 -347 181 -6 0 -11 5 -11 12 0 6 -3 8 -6 5 -4
-3 -16 -1 -28 5 -11 7 -23 13 -26 13 -3 1 -18 8 -35 15 -16 7 -34 14 -40 16
-58 18 -141 51 -146 57 -3 5 -10 8 -15 8 -5 0 -27 5 -49 11 -22 6 -42 12 -45
13 -3 1 -23 7 -45 14 -22 7 -56 17 -75 21 -19 5 -53 14 -75 20 -22 6 -51 13
-65 15 -14 3 -36 8 -50 12 -29 7 -32 8 -120 24 -36 6 -72 14 -80 16 -8 3 -26
7 -40 8 -14 1 -59 7 -100 13 -168 25 -203 28 -330 37 -47 3 -103 8 -125 11
-47 7 -671 12 -762 6 -66 -4 -81 -15 -37 -26 46 -12 354 -167 389 -196 8 -7
15 -9 15 -4 0 5 4 4 8 -1 4 -6 32 -26 62 -45 30 -19 56 -38 58 -42 2 -5 10 -8
18 -8 8 0 14 -4 14 -10 0 -5 5 -10 11 -10 6 0 16 -6 23 -12 7 -7 28 -24 46
-38 83 -63 173 -150 233 -224 18 -22 40 -47 50 -58 9 -10 17 -22 17 -27 0 -5
6 -16 13 -23 19 -20 77 -126 77 -142 0 -7 7 -19 15 -26 9 -7 13 -15 10 -18 -3
-3 -1 -10 4 -16 11 -14 50 -167 57 -227 12 -96 7 -283 -12 -394 -15 -90 -60
-259 -91 -340 -8 -22 -14 -40 -13 -40 1 0 -3 -11 -8 -25 -47 -115 -76 -196
-74 -202 1 -5 -2 -8 -7 -8 -5 0 -12 -11 -15 -24 -17 -69 -414 -861 -440 -878
-6 -4 -7 -8 -2 -8 5 0 4 -6 -1 -12 -14 -18 -84 -150 -193 -363 -51 -99 -96
-184 -100 -190 -5 -5 -9 -14 -10 -20 -1 -5 -30 -67 -65 -137 -35 -69 -61 -129
-58 -132 4 -3 1 -6 -6 -6 -7 0 -9 -4 -6 -10 3 -6 2 -10 -3 -10 -9 0 -27 -47
-24 -62 1 -5 -2 -8 -6 -8 -10 0 -68 -130 -64 -142 1 -5 -3 -8 -8 -8 -6 0 -10
-5 -10 -11 0 -5 -10 -31 -22 -57 -12 -26 -23 -49 -23 -52 -2 -7 -16 -40 -35
-85 -26 -58 -130 -332 -130 -340 0 -4 -6 -21 -14 -38 -8 -18 -31 -86 -52 -152
-20 -66 -41 -129 -45 -140 -17 -43 -99 -363 -114 -443 -2 -15 -13 -68 -24
-118 -11 -50 -22 -111 -26 -135 -8 -57 -14 -98 -20 -129 -2 -14 -7 -52 -11
-85 -3 -33 -8 -69 -9 -80 -20 -154 -28 -724 -12 -885 17 -166 22 -215 42 -355
3 -16 7 -41 10 -55 2 -14 7 -36 10 -50 2 -14 7 -41 10 -60 4 -19 10 -54 16
-78 5 -24 7 -47 4 -52 -3 -4 -1 -10 4 -12 5 -1 11 -16 14 -33 8 -43 36 -163
52 -215 17 -58 85 -282 89 -295 2 -5 4 -13 5 -17 1 -4 10 -28 21 -52 10 -24
16 -47 13 -50 -4 -3 -1 -6 6 -6 6 0 11 -6 10 -12 -1 -7 2 -24 8 -38 6 -14 18
-43 27 -65 10 -22 17 -41 16 -43 0 -1 6 -17 13 -35 8 -17 27 -61 42 -97 49
-116 241 -514 275 -570 5 -8 30 -53 57 -100 26 -47 51 -86 55 -88 4 -2 8 -8 8
-14 0 -21 290 -478 327 -516 7 -7 13 -19 13 -27 0 -7 3 -15 8 -17 12 -5 92
-116 92 -128 0 -5 4 -10 9 -10 5 0 20 -17 32 -37 13 -21 26 -40 30 -43 4 -3
18 -21 32 -40 13 -20 31 -44 40 -55 9 -11 53 -67 98 -125 45 -58 85 -107 88
-110 3 -3 18 -21 32 -40 15 -19 39 -49 55 -67 16 -17 40 -46 54 -64 57 -75 57
-69 2 31 -33 58 -72 130 -88 160 -16 30 -33 58 -37 61 -5 3 -9 9 -8 12 0 4
-31 72 -69 152 -39 80 -70 152 -70 160 0 7 -3 15 -7 17 -9 4 -53 108 -53 126
0 6 -5 12 -12 12 -6 0 -8 3 -5 6 3 4 1 16 -5 28 -7 11 -13 26 -14 31 -2 6 -12
35 -24 65 -56 149 -160 486 -176 575 -1 11 -12 63 -24 115 -11 52 -23 109 -25
125 -2 17 -6 46 -9 65 -23 139 -31 252 -31 425 1 143 11 320 20 335 2 3 6 21
9 40 3 20 12 64 20 99 8 36 13 68 10 73 -3 4 -2 8 3 8 4 0 17 28 27 63 11 34
23 69 27 77 4 8 22 47 40 85 18 39 42 86 54 105 12 19 22 37 22 40 -1 3 6 14
15 25 9 11 43 54 76 95 64 80 138 154 212 210 25 19 47 37 50 40 28 29 194
121 300 168 25 11 65 28 90 40 25 11 64 25 88 32 23 7 42 17 42 23 0 5 7 7 15
3 8 -3 15 -1 15 4 0 6 3 9 7 9 5 -1 11 0 16 1 4 1 10 3 15 5 8 2 18 6 104 41
32 13 64 24 73 24 8 0 15 5 15 12 0 6 3 9 6 5 4 -3 19 0 35 9 16 8 29 11 29 7
0 -5 4 -3 8 4 4 6 20 14 36 17 16 3 32 10 36 16 4 7 11 12 16 12 11 1 30 7 74
26 19 8 41 16 49 18 8 1 18 9 22 16 5 7 9 10 9 6 0 -6 62 25 261 129 15 7 32
20 39 28 7 8 18 15 24 15 6 0 24 11 39 25 15 14 27 23 27 19 0 -4 9 2 20 14
12 12 25 22 30 22 17 0 216 207 255 265 22 33 45 63 50 67 7 5 7 8 0 8 -7 0
-7 3 0 8 20 14 122 232 109 232 -2 0 0 9 6 21 7 11 13 30 16 42 2 12 6 33 10
47 11 50 17 85 18 103 0 9 3 17 6 17 3 0 6 15 7 33 2 74 14 200 20 210 3 6 1
7 -5 3 -9 -5 -9 0 -2 18 7 18 6 26 -1 26 -7 0 -8 5 -3 13 11 15 11 38 1 55 -5
6 -4 12 1 12 9 0 75 -165 75 -187 0 -7 3 -13 6 -13 5 0 28 -62 37 -100 0 -3 4
-12 7 -20 9 -23 57 -175 62 -199 3 -11 7 -30 10 -42 2 -11 6 -28 9 -37 3 -9 8
-35 12 -57 3 -22 9 -42 13 -45 3 -3 7 -21 8 -40 1 -19 5 -64 9 -100 10 -80 10
-263 0 -310 -17 -85 -27 -124 -40 -155 -8 -18 -12 -36 -8 -39 3 -3 0 -6 -6 -6
-7 0 -12 -7 -12 -15 0 -12 -47 -97 -72 -130 -37 -48 -97 -112 -167 -180 -157
-149 -300 -297 -306 -316 -4 -10 -10 -19 -14 -19 -8 0 -112 -200 -120 -230
-46 -183 -56 -392 -26 -570 8 -44 43 -224 48 -245 3 -11 10 -42 17 -69 11 -51
37 -136 72 -241 35 -104 79 -229 87 -250 5 -11 16 -40 26 -65 16 -44 29 -74
55 -135 8 -16 14 -32 15 -35 11 -34 87 -205 96 -215 9 -9 6 133 -3 152 -6 14
-1 395 6 483 12 126 15 155 16 155 1 0 4 14 5 30 3 26 8 56 20 115 2 8 4 16 5
18 2 1 3 10 5 20 1 9 5 29 9 43 4 14 9 32 10 40 2 8 6 21 9 29 3 8 13 38 23
65 10 28 22 56 27 63 5 6 6 12 3 12 -4 0 3 15 16 33 13 17 21 32 19 32 -1 0 5
17 15 38 10 20 22 37 26 37 5 0 6 5 3 10 -3 6 -2 10 3 10 4 0 18 17 30 38 11
20 30 44 41 52 12 8 21 18 21 22 0 17 111 116 196 175 70 48 248 143 270 143
8 0 14 4 14 8 0 5 6 9 13 9 16 1 368 130 482 177 107 45 305 147 305 158 0 4
5 8 11 8 21 0 155 109 221 179 37 40 82 96 102 125 41 62 103 183 108 211 1
11 6 22 9 25 7 6 44 145 54 205 11 59 16 110 20 205 7 149 5 139 17 105 11
-34 26 -72 39 -97 5 -10 9 -27 9 -37 0 -11 4 -23 10 -26 5 -3 10 -16 10 -29 0
-12 3 -26 7 -30 4 -3 8 -12 9 -19 2 -7 12 -41 23 -76 11 -35 18 -68 15 -73 -3
-4 -1 -8 4 -8 5 0 9 -6 9 -12 1 -11 7 -40 26 -123 39 -172 37 -392 -6 -515 -6
-19 -12 -39 -12 -45 -1 -17 -68 -149 -79 -157 -7 -5 -7 -8 -1 -8 6 0 1 -7 -10
-16 -11 -8 -18 -17 -16 -20 4 -6 -18 -45 -65 -117 -37 -59 -112 -248 -119
-302 -9 -79 -17 -175 -18 -213 0 -59 11 -219 19 -252 8 -39 12 -62 18 -104 4
-21 8 -41 10 -45 2 -3 7 -22 10 -41 3 -19 10 -51 16 -70 6 -19 13 -46 16 -60
2 -14 7 -32 11 -40 3 -8 7 -21 9 -28 6 -32 13 -20 20 35 4 32 8 69 9 83 1 14
4 34 8 45 3 11 9 32 12 47 4 25 10 51 20 98 2 8 4 16 5 18 2 1 3 5 4 10 2 5
21 70 31 102 1 3 8 19 15 35 7 17 14 32 14 35 2 9 70 145 76 150 3 3 19 25 35
50 63 94 225 260 254 260 5 0 11 3 13 8 5 12 70 57 133 92 139 77 244 125 515
237 47 19 94 39 105 43 11 5 43 18 70 30 28 12 80 37 118 56 37 19 74 34 82
34 8 0 15 4 15 9 0 5 12 14 28 20 27 10 102 51 112 61 3 3 22 14 43 25 21 11
48 29 62 41 13 11 44 33 69 49 26 16 46 33 46 37 0 4 4 8 10 8 5 0 18 8 28 18
105 99 135 119 138 94 4 -37 102 -219 144 -269 5 -6 30 -37 55 -67 87 -107
208 -213 465 -406 136 -103 157 -120 207 -167 18 -17 33 -30 33 -29 0 2 19
-15 43 -38 24 -23 42 -43 41 -45 -2 -2 7 -13 20 -25 26 -24 106 -141 106 -154
0 -5 7 -23 15 -40 9 -17 18 -40 20 -51 3 -12 7 -31 10 -43 18 -74 22 -162 11
-254 -6 -50 -13 -89 -16 -89 -2 0 -7 -19 -14 -56 -3 -14 -22 -68 -42 -120 -19
-52 -39 -105 -44 -119 -4 -14 -37 -97 -73 -185 -213 -526 -286 -708 -343 -860
-36 -93 -69 -179 -74 -190 -8 -19 -23 -64 -25 -75 0 -3 -3 -9 -6 -15 -5 -8
-30 -76 -34 -95 -1 -3 -7 -18 -14 -35 -7 -16 -14 -37 -16 -45 -2 -8 -16 -49
-30 -90 -15 -41 -28 -82 -30 -90 -2 -8 -4 -16 -5 -17 -2 -2 -4 -7 -5 -13 -1
-5 -3 -11 -5 -12 -1 -2 -3 -10 -5 -18 -2 -8 -10 -34 -19 -57 -8 -24 -13 -43
-9 -43 3 0 0 -7 -7 -15 -7 -8 -10 -15 -7 -15 3 0 -1 -16 -9 -35 -8 -20 -12
-40 -9 -45 4 -6 2 -10 -3 -10 -6 0 -13 -17 -18 -37 -9 -44 -11 -52 -14 -55 -1
-3 -6 -21 -13 -50 -1 -7 -6 -19 -11 -26 -4 -7 -5 -16 -2 -19 3 -3 1 -13 -4
-23 -5 -9 -11 -28 -14 -41 -3 -13 -10 -42 -16 -64 -6 -22 -13 -49 -15 -60 -2
-11 -9 -40 -15 -65 -7 -25 -13 -52 -15 -60 -2 -8 -13 -58 -25 -110 -12 -52
-24 -105 -26 -117 -2 -13 -6 -34 -9 -48 -3 -14 -7 -37 -10 -52 -3 -16 -8 -39
-10 -53 -13 -66 -29 -156 -40 -230 -11 -79 -17 -118 -19 -140 -2 -14 -7 -50
-11 -80 -4 -30 -8 -63 -7 -72 0 -10 -4 -18 -10 -18 -7 0 -7 -4 1 -13 6 -8 9
-16 6 -19 -3 -2 -7 -31 -11 -64 -3 -32 -7 -72 -10 -89 -2 -16 -6 -73 -9 -125
-4 -94 -4 -94 9 -47 8 26 17 55 22 65 4 9 8 22 10 27 4 12 39 114 94 265 23
63 42 121 42 128 1 6 5 12 10 12 4 0 7 3 6 8 0 4 1 14 4 22 3 8 14 38 24 65
10 28 17 53 16 58 -1 4 3 7 8 7 6 0 10 6 10 14 0 8 18 59 41 113 22 54 42 103
43 108 2 6 8 23 14 38 7 16 12 33 12 38 0 5 5 9 12 9 6 0 8 3 5 7 -4 3 0 17 8
30 9 13 13 23 11 23 -3 0 9 30 26 67 39 86 50 115 54 132 1 8 9 18 16 22 7 5
10 9 6 9 -13 0 317 691 334 698 4 2 8 10 8 18 0 13 19 53 30 64 3 3 30 52 59
110 30 58 64 121 76 140 12 19 28 50 36 68 8 17 17 32 21 32 5 0 8 4 8 10 0 5
31 64 70 131 39 68 70 124 70 125 0 1 23 39 50 84 28 45 50 84 50 87 0 3 14
25 30 50 17 24 30 46 30 47 0 2 18 34 40 70 22 36 40 70 40 74 0 5 9 17 20 27
11 10 20 22 20 27 0 4 17 37 38 71 21 35 41 70 45 77 4 8 17 31 29 50 36 60
88 153 116 210 15 30 30 57 34 60 9 7 68 136 68 148 0 6 4 12 8 14 9 4 52 93
52 109 0 6 6 23 14 37 19 38 47 105 49 122 2 8 5 20 9 25 5 9 35 110 43 145
34 148 45 206 52 260 16 137 6 431 -17 490 -1 3 -2 9 -1 14 1 5 -1 16 -5 25
-4 9 -8 25 -10 36 -13 77 -47 184 -140 446 -62 174 -104 311 -118 379 -7 32
-18 96 -22 125 -7 44 -7 225 -1 260 3 17 9 50 12 75 13 89 87 360 99 360 2 0
4 -24 4 -52 4 -112 35 -314 67 -428 36 -130 149 -370 237 -503 32 -49 58 -93
58 -98 0 -5 3 -9 8 -9 4 0 18 -17 32 -38 14 -20 27 -39 30 -42 3 -3 32 -39 65
-80 32 -41 62 -77 65 -80 14 -11 140 -199 140 -208 0 -6 3 -12 8 -14 6 -3 86
-156 87 -168 1 -3 11 -31 23 -62 12 -32 24 -72 27 -90 3 -17 8 -35 11 -40 3
-5 7 -19 9 -31 2 -12 6 -44 10 -72 10 -69 12 -228 4 -295 -4 -30 -10 -80 -13
-110 -4 -30 -16 -102 -26 -160 -11 -58 -22 -116 -24 -130 -2 -14 -7 -36 -10
-50 -3 -14 -8 -45 -11 -70 -3 -25 -8 -58 -11 -75 -5 -30 -11 -69 -18 -135 -2
-19 -7 -57 -11 -85 -10 -78 -16 -135 -20 -195 -2 -30 -5 -55 -6 -55 -3 0 -18
-207 -25 -335 -7 -130 -10 -530 -4 -530 3 0 5 -37 6 -83 0 -75 10 -209 19
-282 3 -16 7 -50 10 -75 3 -25 8 -61 11 -80 3 -19 7 -51 10 -70 6 -46 9 -61
17 -85 3 -11 8 -37 12 -59 3 -21 17 -84 31 -140 14 -55 27 -105 29 -111 1 -5
4 -17 7 -25 3 -8 11 -33 18 -55 66 -214 164 -437 273 -620 53 -88 122 -191
137 -205 3 -3 24 -31 48 -62 23 -32 47 -58 52 -58 6 0 10 -6 10 -14 0 -8 16
-28 35 -45 20 -17 34 -31 31 -31 -3 0 27 -31 67 -69 85 -82 111 -104 197 -171
25 -19 47 -38 50 -41 8 -10 127 -89 133 -89 4 0 -14 29 -38 64 -24 36 -56 86
-70 113 -14 26 -30 55 -35 63 -27 42 -128 273 -153 350 -6 19 -16 38 -22 42
-5 4 -7 8 -3 8 4 0 2 17 -6 38 -15 40 -25 69 -26 77 0 3 -8 24 -16 47 -9 24
-18 54 -20 66 -3 13 -11 43 -19 65 -8 23 -15 51 -15 63 0 11 -3 24 -7 28 -5 4
-9 16 -9 27 -1 10 -2 20 -4 22 -2 3 -10 36 -15 62 -2 11 -4 20 -5 20 -2 0 -10
35 -15 65 -2 14 -6 36 -9 50 -4 14 -8 36 -11 50 -3 14 -7 36 -10 50 -12 57
-17 87 -20 115 -2 17 -9 62 -15 100 -16 103 -27 196 -35 295 -2 30 -7 84 -11
120 -9 92 -9 628 0 730 13 150 19 210 31 280 2 14 7 45 10 70 9 71 10 74 18
88 5 6 6 12 4 12 -3 0 -1 17 4 38 11 43 19 76 33 141 3 11 9 28 15 39 6 11 8
22 4 25 -3 4 0 13 7 22 7 9 10 18 7 21 -3 3 3 26 13 50 11 24 19 46 20 49 0
17 14 62 23 73 5 6 6 12 2 12 -4 0 -2 6 4 13 6 8 8 17 4 20 -3 4 0 7 7 7 7 0
11 3 7 6 -3 3 6 36 20 72 14 37 26 73 26 80 0 6 5 12 10 12 6 0 8 3 4 6 -3 4
3 25 15 48 11 22 20 41 18 41 -5 0 22 79 31 91 5 6 6 14 2 17 -3 4 -1 7 5 7 7
0 11 3 10 8 -3 6 21 79 42 127 5 11 14 38 21 60 6 22 15 44 20 50 5 5 9 19 9
32 0 13 5 23 11 23 5 0 8 4 5 9 -3 4 5 41 18 82 13 41 27 88 32 104 4 17 8 32
9 35 19 68 55 268 60 345 7 84 7 312 0 375 -2 25 -6 65 -9 90 -5 56 -43 239
-61 303 -8 26 -13 47 -12 47 1 0 45 -42 98 -92 52 -51 112 -106 133 -123 152
-118 345 -228 561 -319 50 -21 104 -44 120 -51 17 -7 84 -34 150 -60 66 -26
140 -57 165 -68 25 -12 47 -21 50 -22 35 -6 282 -147 318 -182 7 -7 16 -13 20
-13 29 0 252 -254 252 -286 0 -8 4 -14 8 -14 26 0 144 -321 157 -430 3 -23 6
-40 21 -125 3 -16 5 -40 5 -52 0 -13 3 -23 7 -23 5 0 9 6 9 13 0 6 7 37 16 67
9 30 18 66 21 80 3 14 8 36 11 50 4 14 8 32 9 40 2 8 6 29 9 45 45 204 53 419
22 575 -11 56 -14 67 -30 115 -21 60 -87 199 -97 203 -5 2 -8 10 -8 18 0 8 -4
14 -9 14 -5 0 -11 8 -14 18 -4 9 -18 37 -33 62 -43 72 -84 150 -79 150 2 0 -5
21 -16 46 -11 25 -22 55 -24 67 -2 12 -7 36 -11 52 -14 66 -19 220 -9 290 3
17 7 49 10 73 3 23 10 61 15 85 6 23 12 51 14 62 5 31 17 77 26 105 24 75 44
146 42 153 -1 4 2 7 6 7 5 0 9 7 10 15 1 8 3 22 4 30 1 8 5 15 10 15 5 0 7 3
5 8 -3 4 0 18 6 32 5 14 11 30 13 35 1 6 9 28 17 50 17 45 17 44 21 -75 2 -47
4 -85 5 -85 1 0 4 -27 7 -60 4 -54 9 -91 14 -105 1 -3 2 -8 2 -11 -1 -4 8 -38
19 -75 11 -38 22 -77 24 -86 8 -37 85 -189 126 -249 39 -58 157 -183 221 -235
132 -106 405 -238 703 -339 193 -66 441 -179 480 -221 6 -5 28 -22 50 -37 57
-38 215 -195 215 -214 0 -2 11 -19 25 -37 14 -18 25 -38 25 -44 0 -6 4 -12 8
-14 8 -3 61 -107 69 -133 1 -5 14 -44 29 -85 14 -41 27 -79 28 -85 4 -16 25
-118 30 -145 3 -14 7 -34 9 -45 9 -36 20 -149 21 -197 1 -27 3 -48 6 -48 6 0
4 -414 -3 -530 l-5 -85 21 45 c12 25 24 47 27 50 3 3 6 12 8 20 3 13 24 64 74
180 6 14 15 34 19 45 5 11 20 52 34 90 14 39 30 79 35 90 31 68 139 418 165
540 53 241 68 407 52 585 -6 64 -8 74 -22 135 -25 104 -79 221 -146 311 -39
53 -136 153 -321 330 -87 84 -180 193 -178 209 1 3 -8 17 -20 32 -11 14 -20
32 -20 39 0 8 -5 14 -12 14 -6 0 -8 3 -5 6 3 4 1 16 -5 28 -7 11 -13 23 -13
26 -1 3 -7 25 -15 50 -24 82 -33 148 -33 265 -1 80 9 213 18 237 2 7 6 31 9
53 2 22 18 92 36 155 17 63 32 120 33 125 1 6 6 16 10 23 5 6 6 12 3 12 -3 0
2 16 10 35 8 19 11 35 8 35 -4 0 -2 6 3 13 11 13 27 67 25 80 -1 4 3 7 8 7 6
0 10 8 10 18 0 10 3 22 8 26 4 4 7 11 8 14 0 4 4 15 8 24 4 9 8 22 10 30 1 7
6 20 11 28 10 16 12 21 14 45 0 8 7 15 14 15 8 0 12 -23 12 -80 0 -44 -4 -80
-8 -80 -5 0 -5 -6 0 -12 4 -7 8 -24 9 -38 3 -42 14 -133 19 -165 12 -64 22
-110 25 -110 2 0 3 -5 13 -55 16 -73 116 -285 153 -325 13 -14 21 -25 18 -25
-21 0 158 -189 241 -255 28 -22 52 -43 53 -47 2 -5 9 -8 16 -8 7 0 21 -9 31
-20 10 -11 22 -20 26 -20 4 0 28 -13 52 -30 25 -16 49 -30 55 -30 6 0 12 -3
14 -8 4 -10 336 -172 353 -172 3 0 24 -8 48 -19 65 -29 206 -83 209 -80 2 1
22 -8 44 -19 23 -12 44 -18 48 -15 3 4 6 1 6 -6 0 -7 3 -10 8 -8 4 3 25 -3 46
-14 22 -10 43 -19 47 -19 4 0 29 -10 56 -22 26 -12 54 -20 61 -19 6 1 12 -3
12 -9 0 -5 7 -10 15 -10 8 0 30 -9 50 -20 19 -11 36 -19 38 -19 6 2 63 -27 69
-36 4 -5 8 -7 8 -3 0 11 143 -78 219 -135 61 -46 150 -125 177 -157 72 -84
114 -140 114 -149 0 -6 4 -11 9 -11 5 0 13 -9 16 -20 3 -11 12 -26 19 -32 37
-39 154 -320 170 -413 3 -16 8 -41 12 -55 3 -14 7 -34 9 -45 2 -11 6 -33 9
-50 14 -66 21 -178 21 -340 0 -155 -4 -214 -20 -360 -7 -64 -48 -290 -59 -330
-1 -5 -7 -28 -11 -50 -5 -22 -10 -42 -10 -45 -9 -37 -62 -222 -73 -250 -3 -8
-6 -20 -8 -27 -8 -38 -91 -268 -139 -383 -31 -74 -57 -139 -59 -145 -2 -5 -18
-41 -36 -80 -18 -38 -34 -72 -35 -75 -6 -20 -81 -166 -88 -171 -4 -3 -9 -13
-11 -21 -1 -8 -9 -27 -19 -41 -9 -15 -17 -28 -17 -31 0 -10 -114 -201 -125
-208 -7 -5 -6 -8 1 -8 7 0 24 17 40 38 15 20 62 78 104 127 41 50 97 119 125
155 27 36 54 70 60 76 5 7 18 22 27 35 22 30 135 181 145 194 5 6 29 39 53 75
25 36 48 67 51 70 3 3 27 39 55 80 27 41 55 81 61 88 7 7 13 17 13 22 0 5 6
15 13 22 7 7 31 42 52 77 22 35 48 75 57 90 10 14 21 33 24 41 4 8 13 22 19
30 14 16 150 253 210 365 21 39 41 75 45 80 5 6 8 12 8 15 0 3 22 51 50 106
28 56 48 104 45 108 -4 3 -2 6 4 6 10 0 26 35 24 52 0 3 6 12 14 18 8 7 15 18
15 25 0 7 14 43 31 81 29 63 50 112 54 124 1 3 7 18 13 33 7 16 12 30 12 32 0
2 5 16 12 32 6 15 12 30 13 33 1 3 4 12 8 20 28 72 87 245 87 256 0 8 4 22 9
32 11 19 29 78 61 197 11 44 24 87 27 95 3 8 7 25 9 36 1 12 12 66 24 120 30
137 29 132 40 199 5 33 12 71 15 85 3 14 7 49 11 78 3 29 7 63 10 75 20 106
29 286 29 592 0 273 -4 369 -20 505 -3 19 -7 60 -10 90 -4 30 -8 66 -11 80 -2
14 -8 52 -14 85 -5 33 -12 69 -14 80 -2 11 -7 43 -11 70 -5 28 -9 52 -10 55
-1 3 -7 32 -14 65 -7 33 -24 103 -37 155 -14 52 -26 104 -28 115 -2 11 -19 70
-36 130 -18 61 -33 115 -35 120 -1 6 -6 21 -12 35 -6 14 -18 52 -28 85 -10 33
-24 72 -32 87 -7 15 -14 39 -15 53 -1 14 -6 25 -9 25 -4 0 -11 14 -14 32 -7
31 -11 40 -35 88 -5 11 -10 25 -10 31 0 6 -6 25 -14 42 -25 55 -49 112 -51
123 -2 5 -14 36 -29 67 -14 32 -26 59 -26 62 0 2 -16 39 -36 82 -36 77 -56
123 -59 133 0 3 -27 59 -59 125 -32 66 -69 143 -83 172 -13 28 -27 54 -31 58
-4 4 -7 10 -7 13 0 10 -151 302 -273 532 -116 217 -142 267 -184 350 -23 47
-47 88 -53 92 -6 5 -6 8 0 8 7 0 7 3 0 8 -10 7 -44 74 -46 90 0 4 -6 14 -13
22 -12 14 -24 40 -23 50 0 3 -12 24 -26 48 -15 23 -24 42 -21 42 4 0 -1 9 -11
20 -10 11 -15 20 -11 20 4 0 -4 20 -18 44 -13 24 -22 47 -19 50 4 3 1 6 -5 6
-7 0 -11 3 -10 8 1 4 -3 17 -10 30 -7 12 -9 22 -5 22 4 0 3 4 -3 8 -5 4 -31
59 -56 122 -52 131 -60 152 -63 163 -2 4 -4 9 -5 12 -1 3 -3 8 -4 13 -2 4 -13
41 -26 82 -13 41 -25 77 -25 80 0 3 -4 11 -8 18 -5 6 -6 12 -3 12 2 0 0 15 -5
33 -6 17 -12 43 -15 57 -2 14 -9 49 -15 77 -6 29 -11 66 -11 83 -1 16 -5 30
-10 30 -5 0 -5 7 0 17 5 9 7 28 3 42 -15 58 5 294 31 360 11 29 19 60 20 79 1
6 5 12 10 12 4 0 7 4 5 8 -4 13 45 113 85 175 21 32 38 62 38 67 0 5 3 10 8
12 4 2 25 26 47 53 22 28 43 52 47 55 4 3 38 35 75 71 37 36 95 85 128 110 33
24 62 47 63 52 2 4 8 5 13 1 5 -3 9 -1 9 5 0 25 512 301 559 301 6 0 11 5 11
10 0 10 -28 11 -217 13 -46 1 -83 5 -83 9 0 4 -4 8 -10 8 -5 0 -10 -3 -10 -7z"/>
<path d="M2325 10443 c-112 -56 -183 -102 -260 -167 -63 -53 -154 -146 -155
-158 0 -4 -6 -13 -14 -20 -17 -18 -97 -158 -89 -158 3 0 1 -6 -5 -12 -12 -16
-58 -150 -67 -198 -3 -19 -8 -44 -10 -55 -12 -65 -21 -146 -16 -150 2 -3 6
-13 7 -23 5 -50 39 -178 48 -184 8 -5 8 -8 0 -8 -8 0 -8 -11 2 -37 7 -21 13
-45 14 -54 0 -9 7 -41 16 -70 25 -85 35 -123 38 -139 5 -31 55 -196 84 -279 8
-24 18 -58 23 -75 7 -31 54 -167 66 -196 3 -8 7 -18 8 -22 2 -5 3 -9 5 -10 1
-2 3 -10 5 -18 1 -9 12 -38 23 -65 11 -28 37 -93 57 -145 63 -162 178 -423
266 -602 33 -65 59 -123 59 -128 0 -6 3 -10 8 -10 4 0 14 -15 21 -32 8 -18 27
-54 43 -80 15 -27 24 -48 20 -48 -4 0 -2 -4 4 -8 9 -6 37 -56 68 -119 6 -13
15 -23 19 -23 5 0 5 -4 2 -10 -3 -5 -3 -10 2 -10 4 0 19 -21 33 -47 13 -27 27
-50 31 -53 3 -3 16 -23 28 -45 23 -43 28 -52 79 -130 18 -27 37 -57 42 -65 5
-8 21 -32 35 -53 14 -21 25 -42 25 -47 0 -4 3 -10 8 -12 4 -1 32 -39 62 -83
61 -91 233 -324 294 -401 23 -28 52 -66 66 -84 14 -18 30 -38 35 -44 6 -6 32
-38 60 -71 27 -33 52 -62 55 -65 3 -3 32 -36 65 -75 70 -81 55 -65 175 -195
80 -86 330 -337 404 -405 128 -117 265 -239 305 -269 14 -12 31 -25 37 -31 6
-5 25 -21 43 -35 19 -14 41 -33 49 -42 9 -10 20 -18 25 -18 4 0 18 -10 30 -23
12 -13 38 -34 57 -47 19 -13 42 -30 50 -37 8 -8 42 -34 75 -58 33 -24 67 -50
77 -58 9 -8 25 -18 37 -22 12 -3 21 -10 21 -14 0 -7 64 -53 119 -86 9 -5 18
-13 21 -16 11 -12 270 -179 279 -179 5 0 11 -4 13 -8 7 -17 458 -277 458 -264
0 4 5 0 10 -8 5 -8 13 -15 17 -16 10 0 106 -47 113 -55 9 -9 185 -93 193 -91
4 1 7 -2 7 -8 0 -5 6 -10 14 -10 8 0 41 -14 75 -30 56 -28 109 -52 121 -54 3
-1 32 -14 64 -29 33 -15 70 -30 83 -33 13 -4 26 -10 29 -15 3 -5 14 -9 25 -9
10 0 19 -5 19 -12 0 -6 3 -8 7 -5 3 4 12 2 20 -4 7 -6 13 -9 13 -6 0 3 26 -6
57 -19 32 -14 78 -33 103 -41 25 -9 56 -20 70 -26 30 -12 28 -12 65 -22 17 -4
35 -10 40 -14 6 -3 19 -7 30 -8 11 -2 24 -8 29 -13 6 -6 16 -10 22 -10 7 0 25
-5 41 -11 15 -7 35 -13 43 -15 8 -1 64 -18 125 -38 60 -20 115 -36 122 -36 7
0 13 12 14 28 3 90 18 325 24 367 6 47 17 146 21 190 2 22 6 54 8 70 11 67 19
132 20 163 l1 34 -115 37 c-63 21 -124 41 -135 45 -11 4 -33 12 -50 18 -37 12
-74 27 -97 39 -10 5 -22 9 -27 9 -10 0 -289 115 -379 156 -28 13 -55 25 -60
26 -4 1 -78 37 -164 80 -86 43 -162 78 -167 78 -6 0 -11 4 -11 9 0 5 -17 16
-37 25 -21 9 -51 24 -68 34 -16 9 -61 35 -100 56 -38 21 -78 46 -89 55 -10 9
-19 14 -20 12 -2 -7 -96 52 -309 194 -116 77 -217 145 -225 150 -8 6 -22 16
-31 23 -9 8 -52 40 -96 73 -44 33 -87 65 -95 72 -8 6 -47 37 -85 67 -39 30
-81 65 -95 77 -14 12 -35 30 -47 40 -67 56 -110 93 -150 131 -24 23 -49 42
-54 42 -6 0 -7 5 -4 10 3 6 1 10 -5 10 -15 0 -223 203 -416 406 -50 52 -139
153 -184 207 -14 17 -34 40 -45 51 -64 68 -316 394 -405 527 -24 35 -47 66
-52 67 -4 2 -8 10 -8 18 0 8 -4 14 -10 14 -5 0 -10 4 -10 9 0 5 -31 55 -68
112 -38 57 -75 115 -82 129 -7 14 -16 27 -19 30 -4 3 -13 18 -21 34 -29 56
-35 66 -42 66 -5 0 -8 4 -8 9 0 12 -89 171 -108 194 -8 9 -12 17 -7 17 4 0 3
6 -3 13 -19 23 -161 305 -156 309 2 3 -2 11 -11 18 -8 7 -15 16 -15 21 0 5
-14 39 -31 76 -72 155 -89 196 -89 209 0 8 -4 14 -10 14 -5 0 -10 7 -10 15 0
8 -18 59 -39 112 -39 96 -52 133 -52 143 -1 3 -4 10 -9 15 -6 8 -48 126 -56
160 -2 6 -10 30 -19 55 -10 25 -19 56 -22 70 -2 13 -7 27 -11 30 -7 5 -9 13
-17 50 -2 8 -4 15 -5 15 -1 0 -3 7 -5 15 -1 8 -10 38 -18 67 -8 28 -13 54 -10
57 4 3 1 6 -6 6 -7 0 -11 6 -8 14 3 7 0 19 -6 25 -6 6 -8 11 -5 11 4 0 0 16
-8 35 -8 19 -12 35 -9 35 2 0 0 11 -5 25 -5 14 -12 36 -14 48 -9 40 -14 62
-24 102 -6 22 -13 56 -16 75 -3 19 -10 49 -15 67 -5 17 -7 34 -3 37 3 3 0 6
-7 6 -7 0 -10 4 -7 8 3 5 -1 35 -9 68 -7 32 -16 78 -19 101 -3 22 -7 52 -10
65 -3 12 -8 37 -10 53 -3 17 -7 40 -10 52 -2 12 -7 48 -11 80 -3 32 -8 65 -10
73 -6 24 -22 160 -29 254 -3 32 -6 60 -8 61 -2 2 -44 -17 -93 -42z"/>
<path d="M16779 10463 c0 -15 -2 -37 -4 -48 -2 -11 -5 -44 -7 -72 -2 -29 -5
-53 -8 -53 -5 0 -7 -25 -13 -127 -1 -24 -4 -43 -7 -43 -3 0 -7 -12 -8 -27 -3
-40 -9 -80 -21 -142 -6 -29 -9 -57 -6 -61 3 -5 2 -11 -3 -14 -4 -2 -9 -17 -10
-33 -3 -32 -9 -68 -13 -68 -1 0 -3 -9 -4 -20 -5 -32 -14 -82 -29 -146 -8 -33
-15 -62 -15 -64 -1 -3 -1 -6 -2 -7 -4 -13 -10 -48 -12 -70 -1 -16 -5 -28 -8
-28 -4 0 -10 -19 -14 -42 -9 -47 -8 -45 -18 -73 -3 -11 -8 -31 -11 -45 -2 -14
-11 -44 -20 -67 -8 -24 -13 -43 -10 -43 2 0 -2 -16 -10 -35 -9 -20 -15 -39
-16 -43 -1 -13 -21 -87 -27 -102 -4 -8 -7 -18 -8 -22 -2 -5 -4 -10 -5 -13 -3
-5 -3 -6 -15 -50 -4 -16 -12 -36 -18 -42 -5 -7 -7 -13 -4 -13 3 0 -5 -27 -18
-59 -13 -33 -20 -62 -17 -65 3 -3 0 -6 -7 -6 -7 0 -10 -4 -7 -8 3 -5 -1 -20
-9 -35 -8 -15 -12 -27 -10 -27 2 0 -14 -43 -36 -97 -21 -53 -39 -102 -39 -110
0 -7 -5 -13 -10 -13 -6 0 -9 -3 -8 -7 1 -5 -4 -19 -12 -33 -7 -14 -13 -27 -13
-30 1 -7 -8 -30 -28 -77 -11 -23 -19 -47 -19 -52 0 -6 -4 -11 -10 -11 -5 0
-10 -9 -10 -20 0 -11 -5 -20 -12 -20 -6 0 -9 -3 -5 -6 3 -4 -1 -21 -10 -38
-10 -17 -18 -33 -18 -36 -1 -10 -109 -225 -124 -249 -8 -13 -16 -30 -17 -38
-1 -8 -7 -20 -14 -28 -6 -7 -23 -37 -39 -67 -43 -83 -92 -169 -122 -213 -14
-22 -28 -44 -29 -50 -3 -12 -44 -79 -71 -117 -10 -15 -19 -29 -19 -32 0 -2
-29 -48 -65 -101 -36 -54 -65 -102 -65 -106 0 -5 -3 -9 -7 -9 -5 0 -30 -34
-57 -75 -28 -41 -54 -75 -59 -75 -4 0 -6 -4 -3 -9 3 -5 -1 -14 -8 -21 -8 -6
-34 -38 -58 -71 -38 -53 -187 -242 -243 -308 -11 -13 -37 -44 -58 -70 -90
-107 -213 -238 -402 -426 -201 -200 -279 -273 -424 -393 -24 -21 -49 -42 -55
-47 -6 -6 -54 -44 -106 -85 -52 -41 -97 -77 -100 -80 -3 -3 -75 -56 -160 -118
-85 -62 -160 -117 -167 -122 -7 -6 -17 -10 -23 -10 -5 0 -10 -4 -10 -10 0 -5
-4 -10 -8 -10 -5 0 -59 -34 -121 -75 -61 -41 -115 -75 -119 -75 -4 0 -17 -7
-27 -15 -24 -19 -204 -125 -211 -125 -3 0 -18 -9 -34 -20 -15 -11 -30 -17 -34
-13 -3 3 -6 2 -6 -4 0 -5 -20 -19 -45 -32 -30 -15 -42 -27 -38 -36 3 -8 9 -13
13 -10 5 3 11 1 14 -4 4 -5 27 -20 54 -33 61 -31 93 -50 109 -65 7 -6 22 -15
33 -18 11 -3 20 -11 20 -16 0 -5 5 -9 10 -9 6 0 52 -28 102 -63 50 -34 98 -66
107 -72 9 -5 18 -12 21 -15 3 -3 25 -21 50 -40 25 -19 50 -39 56 -45 7 -5 31
-26 54 -44 23 -19 48 -40 54 -45 57 -52 42 -55 178 30 67 42 158 101 201 131
43 29 80 53 83 53 3 0 16 11 30 25 14 14 30 23 35 20 5 -4 9 -3 9 2 0 4 17 19
38 33 20 14 48 35 62 48 14 12 30 22 37 22 6 0 13 4 15 8 2 5 30 28 63 53 33
24 62 46 65 49 3 3 21 17 42 32 20 15 43 35 52 44 9 8 16 13 16 9 0 -3 13 8
30 25 16 16 34 30 39 30 5 0 11 3 13 8 2 4 35 33 73 65 259 214 544 489 810
779 17 18 55 62 85 98 30 36 60 69 66 75 6 5 43 49 81 96 38 48 75 93 81 100
7 8 28 34 47 59 19 25 41 52 47 60 7 8 33 41 57 74 24 33 48 65 53 70 5 6 40
56 79 111 38 55 76 109 83 120 48 67 86 128 86 136 0 5 5 9 10 9 6 0 10 7 10
15 0 8 5 15 10 15 6 0 10 7 10 15 0 8 5 15 10 15 6 0 10 6 10 13 0 8 9 22 20
32 11 10 18 20 15 23 -3 3 1 12 9 21 20 24 136 220 136 231 0 6 5 10 10 10 6
0 10 5 10 10 0 13 101 193 113 201 5 3 8 9 7 13 -1 4 39 87 89 186 50 99 88
180 85 180 -3 0 4 13 15 29 12 16 21 33 21 39 0 5 6 22 14 38 42 88 75 164
139 324 72 180 120 314 177 491 28 90 54 171 57 179 4 8 7 20 8 26 2 6 11 38
21 70 20 68 18 58 28 109 4 22 11 44 14 50 4 5 7 15 8 20 9 48 15 73 29 120 8
30 15 58 14 62 -1 4 0 15 4 23 14 39 37 152 32 161 -4 5 -2 9 3 9 10 0 12 14
11 85 -1 70 -1 75 -10 75 -4 0 -6 8 -5 17 2 10 -6 49 -16 88 -23 86 -23 86
-32 107 -4 9 -9 23 -10 31 -1 8 -8 23 -16 33 -8 9 -13 18 -11 18 8 2 -33 86
-41 86 -4 0 -8 5 -8 12 0 17 -77 116 -134 172 -79 77 -196 160 -316 220 l-110
57 -1 -28z"/>
<path d="M9796 8403 c-4 -13 -13 -29 -19 -36 -7 -7 -21 -28 -31 -47 -11 -19
-53 -93 -94 -165 -41 -71 -85 -148 -97 -170 -12 -22 -32 -57 -43 -77 -12 -21
-38 -68 -58 -105 -20 -37 -47 -87 -61 -110 -13 -24 -20 -43 -16 -43 4 0 3 -4
-3 -8 -14 -9 -185 -342 -176 -342 4 0 2 -4 -3 -8 -6 -4 -36 -59 -67 -122 -76
-156 -122 -254 -123 -260 -1 -3 -8 -19 -18 -36 -21 -40 -201 -447 -251 -569
-21 -49 -42 -99 -47 -110 -17 -38 -121 -300 -151 -380 -42 -115 -180 -498
-183 -510 -1 -5 -5 -17 -8 -25 -9 -25 -59 -180 -61 -193 -2 -7 -12 -43 -24
-82 -12 -38 -22 -79 -24 -90 -2 -11 -5 -22 -8 -25 -7 -7 -64 -240 -64 -262 0
-10 -3 -18 -6 -18 -4 0 -7 -6 -7 -12 -2 -21 -11 -70 -21 -110 -6 -21 -8 -38
-6 -38 3 0 1 -8 -4 -17 -5 -10 -12 -38 -15 -63 -4 -25 -9 -56 -11 -70 -3 -13
-9 -42 -12 -65 -12 -75 -15 -90 -18 -110 -2 -11 -7 -45 -11 -75 -4 -30 -8 -59
-9 -65 -1 -5 -5 -15 -9 -22 -4 -6 -3 -14 3 -18 6 -4 8 -11 4 -16 -10 -18 -31
-205 -38 -349 -1 -19 -5 -40 -8 -45 -4 -6 -3 -17 2 -25 5 -8 5 -22 -1 -32 -7
-12 -6 -18 1 -18 7 0 8 -6 2 -17 -10 -22 -9 -434 1 -450 5 -8 3 -13 -3 -13 -6
0 -8 -5 -3 -12 4 -7 8 -44 9 -83 1 -38 3 -70 4 -70 1 0 3 -22 6 -50 2 -27 6
-68 9 -90 2 -22 7 -60 9 -85 3 -25 8 -56 11 -70 3 -14 7 -41 10 -60 4 -29 25
-131 50 -250 3 -14 11 -41 17 -60 6 -19 13 -42 14 -50 4 -25 12 -53 28 -98 8
-23 16 -44 16 -47 1 -10 44 -134 57 -165 3 -8 7 -21 9 -28 1 -7 41 -90 87
-185 76 -154 206 -366 269 -439 13 -15 34 -41 47 -58 14 -18 45 -53 69 -78 24
-26 61 -66 83 -89 21 -24 39 -41 39 -39 0 2 17 -13 38 -33 50 -47 94 -85 111
-95 18 -11 10 1 -40 69 -20 28 -49 73 -65 100 -15 28 -32 53 -38 57 -6 4 -8 8
-4 8 4 0 -5 21 -20 47 -40 69 -132 268 -132 285 0 8 -5 19 -12 26 -6 6 -13 17
-14 24 -2 7 -23 72 -48 144 -25 72 -63 204 -85 295 -46 189 -50 204 -86 409
-7 40 -27 182 -30 220 -10 113 -17 164 -21 171 -2 4 0 10 5 14 7 3 7 15 1 30
-9 25 -6 502 4 565 3 19 8 55 10 80 5 42 8 67 21 153 16 106 62 300 95 398 29
85 67 179 72 179 2 0 3 -35 4 -78 1 -75 10 -196 18 -239 3 -11 7 -37 10 -57 3
-19 11 -57 17 -83 6 -27 13 -57 15 -69 2 -12 10 -40 19 -63 8 -23 15 -43 15
-46 8 -56 143 -375 162 -383 5 -2 8 -9 8 -17 0 -7 7 -18 15 -25 9 -7 13 -15
11 -18 -4 -4 93 -155 129 -200 128 -162 375 -412 406 -412 4 0 12 -6 16 -12
12 -19 245 -179 316 -218 173 -94 439 -215 512 -234 15 -4 48 -17 70 -27 11
-5 29 -11 40 -14 65 -14 434 -131 545 -173 8 -3 18 -6 22 -6 3 -1 10 -4 14 -9
4 -4 16 -7 26 -7 10 0 18 -5 18 -12 0 -6 3 -9 6 -6 6 7 202 -77 219 -93 5 -5
17 -9 27 -9 10 0 18 -5 18 -12 0 -6 3 -8 7 -5 3 4 12 2 18 -3 11 -9 63 -38
132 -74 13 -6 23 -14 23 -18 0 -5 5 -8 11 -8 13 0 128 -80 199 -138 55 -45
143 -133 189 -187 29 -35 121 -185 121 -198 0 -5 7 -23 15 -40 20 -45 42 -145
41 -190 -1 -20 2 -37 5 -37 3 0 4 -12 2 -27 -2 -16 -5 -48 -7 -73 -2 -25 -5
-45 -6 -45 -1 0 -4 -11 -5 -25 -4 -27 -13 -65 -15 -65 -1 0 -3 -10 -5 -21 -6
-30 -70 -167 -102 -217 -15 -23 -25 -44 -24 -45 1 -2 -4 -9 -12 -15 -8 -7 -23
-25 -33 -40 l-17 -29 74 39 c113 60 287 172 336 217 6 6 25 21 41 34 16 12 46
38 66 57 21 19 39 35 41 35 5 0 134 135 176 185 85 99 189 244 189 264 0 5 3
11 8 13 9 4 74 135 103 208 55 139 81 274 80 410 0 52 -3 104 -5 115 -3 11 -8
41 -12 68 -3 26 -11 47 -16 47 -5 0 -6 4 -3 10 9 14 -49 146 -99 228 -70 113
-182 229 -301 312 -27 19 -52 37 -55 40 -20 21 -164 102 -189 106 -8 2 -17 6
-20 11 -10 13 -49 33 -66 33 -8 0 -15 4 -15 10 0 5 -3 9 -7 8 -5 -1 -30 9 -58
21 -27 13 -59 27 -70 31 -11 4 -36 15 -55 23 -98 42 -159 64 -164 59 -3 -3 -6
1 -6 8 0 7 -3 11 -6 7 -3 -3 -26 3 -51 14 -24 10 -53 19 -64 19 -10 0 -19 5
-19 11 0 6 -6 9 -13 6 -7 -3 -21 1 -31 9 -11 7 -22 11 -26 9 -4 -2 -30 5 -58
15 -29 11 -52 18 -52 15 0 -3 -10 1 -23 10 -13 8 -26 12 -30 9 -3 -3 -12 -2
-19 2 -7 5 -17 9 -23 11 -5 1 -35 9 -65 18 -30 9 -62 18 -70 20 -8 2 -49 14
-90 25 -41 12 -82 23 -90 25 -8 2 -28 9 -45 16 -16 6 -37 13 -45 15 -25 5 -55
12 -55 14 0 1 -8 3 -18 5 -10 2 -26 7 -35 11 -9 4 -19 8 -22 9 -26 6 -122 40
-147 51 -17 8 -34 14 -38 14 -14 0 -240 113 -243 121 -2 5 -8 9 -14 9 -8 0
-59 33 -113 73 -153 113 -309 300 -406 487 -19 36 -36 67 -39 70 -27 27 -167
438 -160 470 1 3 -3 17 -9 31 -5 15 -12 47 -16 70 -3 24 -8 55 -10 69 -3 14
-7 35 -10 48 -2 13 -7 51 -11 85 -3 34 -8 76 -10 92 -6 44 -11 441 -6 504 4
57 16 54 27 -7 6 -37 30 -113 49 -157 7 -16 22 -54 32 -82 10 -29 22 -53 26
-53 4 0 8 -6 8 -14 0 -17 69 -149 116 -223 19 -29 30 -53 26 -53 -4 0 -2 -4 4
-8 5 -4 30 -36 55 -72 24 -36 49 -70 54 -76 25 -28 45 -55 45 -58 0 -16 308
-326 324 -326 3 0 15 -10 28 -23 13 -12 36 -31 52 -42 16 -11 41 -31 57 -43
16 -13 29 -21 29 -17 0 3 6 0 14 -7 7 -7 24 -20 36 -28 12 -8 33 -23 45 -33
13 -9 28 -17 33 -17 6 0 17 -6 24 -12 34 -32 288 -158 418 -207 47 -18 92 -36
100 -40 15 -8 115 -39 135 -42 6 0 17 -5 26 -10 9 -4 27 -10 40 -13 13 -3 69
-16 124 -31 90 -23 207 -49 275 -61 14 -3 43 -10 65 -16 22 -5 51 -12 64 -15
14 -2 28 -6 33 -9 6 -4 100 -31 133 -38 72 -16 393 -138 459 -175 20 -12 36
-19 36 -16 0 2 27 -11 59 -30 33 -19 64 -35 70 -35 6 0 11 -4 11 -10 0 -5 4
-10 9 -10 12 0 117 -69 196 -129 68 -51 255 -232 270 -260 6 -10 29 -46 52
-79 43 -63 105 -184 128 -252 1 -3 4 -12 8 -20 3 -8 9 -28 13 -45 4 -16 8 -34
10 -40 1 -5 5 -21 8 -35 3 -14 8 -36 11 -50 11 -45 13 -293 4 -355 -5 -33 -12
-76 -15 -95 -2 -19 -8 -44 -11 -55 -4 -11 -8 -24 -9 -30 -3 -12 -14 -55 -19
-75 -2 -8 -4 -16 -5 -17 -2 -2 -3 -6 -5 -10 -4 -18 -26 -70 -36 -88 -6 -12 1
-8 18 10 16 17 31 35 33 40 4 9 21 31 45 59 21 24 95 137 95 145 0 5 3 11 8
13 8 3 82 122 82 132 0 3 13 28 30 56 81 137 179 422 204 592 23 153 23 329 2
458 -13 74 -18 97 -39 165 -11 39 -21 72 -22 75 -1 3 -7 18 -13 33 -7 16 -12
31 -12 34 0 3 -21 46 -46 97 -48 96 -150 255 -206 320 -66 79 -161 178 -204
216 -234 203 -358 289 -664 460 -59 33 -294 146 -385 184 -60 26 -119 51 -130
56 -11 5 -83 32 -160 60 -77 28 -148 55 -158 61 -10 5 -22 7 -27 4 -6 -4 -10
-2 -10 3 0 6 -10 12 -23 16 -13 3 -40 12 -60 21 -20 8 -40 16 -44 17 -19 3
-323 159 -328 168 -4 6 -11 8 -16 5 -5 -4 -9 -1 -9 4 0 6 -7 11 -15 11 -8 0
-15 5 -15 10 0 6 -6 10 -14 10 -7 0 -19 7 -26 15 -7 9 -15 13 -18 11 -2 -3
-10 0 -18 7 -32 28 -44 37 -51 37 -5 0 -20 11 -35 25 -15 14 -30 25 -34 25 -5
0 -24 14 -104 77 -128 101 -270 236 -380 363 -30 34 -60 68 -65 74 -6 6 -28
36 -50 66 -22 30 -43 57 -47 58 -5 2 -8 10 -8 17 0 7 -4 15 -8 17 -19 8 -158
235 -222 363 -19 39 -39 73 -43 76 -5 3 -8 8 -7 10 2 5 -14 44 -44 109 -11 25
-21 47 -22 50 -3 14 -33 88 -46 114 -5 10 -11 26 -13 36 -4 23 -54 178 -65
205 -5 11 -11 31 -13 45 -3 14 -13 52 -22 85 -9 33 -23 89 -31 125 -8 36 -17
74 -19 85 -3 11 -7 34 -10 50 -2 17 -9 55 -15 85 -5 30 -12 71 -15 90 -3 19
-7 49 -10 65 -2 17 -7 59 -11 95 -3 36 -10 70 -15 77 -7 7 -6 14 1 18 6 3 8
10 6 14 -7 11 -18 173 -27 416 -1 17 12 347 15 391 1 22 6 46 10 52 4 7 3 12
-3 12 -7 0 -7 10 0 30 6 16 9 37 7 47 -4 15 -5 15 -12 -4z"/>
</g>
</svg>
